::Release Info::
================

Release Title: Box of Moonlight [1996] Tom DiCillo
Encode date:

::IMDB and TMDB Info::
======================
TMDB Link: http://www.themoviedb.org/movie/31146
IMDB Link: http://www.imdb.com/title/tt0115738
Storyline: Al Fountain, a middle-aged electrical engineer, is on the verge of a mid-life crisis, when he decides to take his time coming home from a business trip, rents a car, and heads out looking for a lake he remembers from his childhood. But his wandering takes him into the life of Kid, a free-spirited young man who helps Al escape from the routine of everyday life and find freedom to enjoy himself.
Genre: Comedy | Drama
Release date: 01/01/1996

::Actors::
==========
John Turturro ... Al Fountain
Sam Rockwell ... The Kid
Catherine Keener ... Floatie Dupre
Dermot Mulroney ... Wick
Lisa Blount ... Purlene Dupre
Annie Corley ... Deb Fountain
Alexander Goodwin ... Bobby Fountain
Mike Stanley ... Doob
Rica Martens ... Doris
Ray Aranha ... Soapy
Robert Wightman ... Dex

General
=======
Complete name : Box of Moonlight [1996] Tom DiCillo.avi
Format : AVI
Format/Info : Audio Video Interleave
File size : 911 MiB
Duration : 1h 51mn
Overall bit rate : 1 140 Kbps

Video
=====
ID : 0
Format : MPEG-4 Visual
Format profile : Simple@L1
Format settings, BVOP : No
Format settings, QPel : No
Format settings, GMC : No warppoints
Format settings, Matrix : Default (H.263)
Codec ID : DX50
Codec ID/Hint : DivX 5
Duration : 1h 51mn
Bit rate : 1 000 Kbps
Width : 640 pixels
Height : 352 pixels
Display aspect ratio : 16:9
Frame rate : 23.976 fps
Color space : YUV
Chroma subsampling : 4:2:0
Bit depth : 8 bits
Scan type : Progressive
Compression mode : Lossy
Bits/(Pixel*Frame) : 0.185
Stream size : 799 MiB (88%)
Writing library : Lavc51.1.0

Audio
=====
ID : 1
Format : MPEG Audio
Format version : Version 1
Format profile : Layer 3
Mode : Joint stereo
Mode extension : MS Stereo
Codec ID : 55
Codec ID/Hint : MP3
Duration : 1h 51mn
Bit rate mode : Constant
Bit rate : 128 Kbps
Channel(s) : 2 channels
Sampling rate : 44.1 KHz
Compression mode : Lossy
Delay relative to video : 26ms
Stream size : 102 MiB (11%)
Alignment : Split accross interleaves
Interleave, duration : 26 ms (0.63 video frame)
Writing library : LAME3.96.1